<svg width="487" height="80" viewBox="0 0 487 80" fill="none" xmlns="http://www.w3.org/2000/svg">
<path d="M259 57.4307C257.828 58.188 256.627 58.731 255.394 59.0557C254.166 59.3284 252.904 59.4648 251.608 59.4648C248.062 59.4648 245.437 58.1351 243.732 55.4756L241.891 52.7139C240.39 50.4636 238.344 48.9287 235.753 48.1104C240.799 46.6783 244.857 44.2238 247.926 40.7461C250.994 37.2 252.529 32.7664 252.529 27.4473C252.529 19.9462 249.835 14.0815 244.448 9.85352C240.603 6.79731 235.226 4.84694 228.316 4H195.144V76H215.192V50.2588C216.283 50.4634 217.204 50.907 217.954 51.5889C218.704 52.2707 219.488 53.2936 220.307 54.6572L227.059 66.0117C229.241 69.626 232.105 72.4218 235.651 74.3994C236.793 75.0358 238.03 75.5683 239.361 76H257.824C258.229 75.8809 258.62 75.7537 259 75.6221V80H0V0H259V57.4307ZM27.9199 4C24.9616 4.78946 22.1938 5.88776 19.6172 7.2959C13.7525 10.501 9.18351 15.0023 5.91016 20.7988C2.63687 26.5953 1.00003 33.3812 1 41.1553C1.00006 48.7246 2.50053 55.2036 5.50098 60.5908C8.50153 65.978 12.8322 70.1037 18.4922 72.9678C21.1097 74.2923 23.9607 75.3025 27.0449 76H48.5576C52.0139 75.1653 55.222 73.8819 58.1816 72.1494C63.7734 68.8761 68.1041 64.3413 71.1729 58.5449C74.3098 52.7484 75.8779 46.0303 75.8779 38.3926C75.8778 31.1642 74.3774 24.8903 71.377 19.5713C68.4446 14.184 64.2848 9.9898 58.8975 6.98926C56.6598 5.72702 54.2588 4.73128 51.6953 4H27.9199ZM69.126 4L90.1182 76H119.155L138.398 20.6855V76H190.987L192.205 58.6465H158.551V48.418H188.727V30.9258H158.551V21.0029H191.387V4H123.751L105.707 57.7266L90.8057 4H69.126ZM39.3594 20.3896C44.2011 20.3896 48.0548 22.06 50.9189 25.4014C53.8512 28.7428 55.3173 33.21 55.3174 38.8018C55.3174 45.0073 53.7825 49.9856 50.7139 53.7363C47.6451 57.4189 43.4854 59.2607 38.2344 59.2607C33.0516 59.2607 28.9939 57.6239 26.0615 54.3506C23.1293 51.0773 21.6631 46.5081 21.6631 40.6436C21.6631 36.6884 22.3795 33.2104 23.8115 30.21C25.3118 27.1413 27.3913 24.7537 30.0508 23.0488C32.7103 21.2759 35.8134 20.3897 39.3594 20.3896ZM219.488 19.9805C223.307 19.9805 226.377 20.4918 228.695 21.5146C231.082 22.4693 232.275 24.3107 232.275 27.0381C232.275 29.5612 231.388 31.4375 229.615 32.665C227.91 33.8241 224.841 34.4033 220.409 34.4033H215.192V19.9805H219.488Z" fill="black"/>
<g clip-path="url(#clip0_54_1421)">
<g clip-path="url(#clip1_54_1421)">
<path d="M416.085 74.6276V2H436.544V32.1763L462.424 2H486.769L455.059 38.4161C456.695 39.3026 458.162 40.4279 459.457 41.7918C460.753 43.1557 461.878 44.6559 462.833 46.2926L466.822 53.1462C468.595 56.3514 471.289 57.954 474.903 57.954C477.836 57.954 480.461 57.2379 482.78 55.8058L487.485 71.5589C485.849 72.8546 483.666 73.8775 480.939 74.6276C478.211 75.446 475.449 75.8551 472.653 75.8551C462.356 75.8551 454.99 72.0703 450.558 64.5007L443.909 53.1462C442.818 51.305 441.761 49.9411 440.738 49.0545C439.715 48.0998 438.317 47.4519 436.544 47.111V74.6276H416.085Z" fill="black"/>
<path d="M392.389 2H412.03V74.6276H393.821L365.691 35.5519V74.6276H346.051V2H364.259L392.389 40.9734V2Z" fill="black"/>
<path d="M321.469 74.6276V2H341.927V74.6276H321.469Z" fill="black"/>
<path d="M319.594 2L316.627 19.7989H295.351V74.6276H274.892V19.7989H259.183V2H319.594Z" fill="black"/>
</g>
</g>
<defs>
<clipPath id="clip0_54_1421">
<rect width="235" height="72" fill="white" transform="translate(252 3)"/>
</clipPath>
<clipPath id="clip1_54_1421">
<rect width="235" height="72" fill="white" transform="translate(252 3)"/>
</clipPath>
</defs>
</svg>
